<svg xmlns="http://www.w3.org/2000/svg" width="144" height="144" viewBox="0 0 144 144"><path d="M136.36 125.543l-5.855-31.785c-.295-1.598-1.063-3.066-2.213-4.21L48.1 9.352c-1.502-1.504-3.54-2.346-5.664-2.346-2.125 0-4.162.842-5.664 2.346L10.84 35.286c-3.127 3.127-3.127 8.197 0 11.328l80.195 80.19c1.146 1.147 2.615 1.918 4.21 2.21l31.786 5.855c.485.09.97.136 1.454.136 2.104 0 4.147-.832 5.662-2.348 1.866-1.86 2.692-4.52 2.213-7.115zm-35.548-3.645l22.574-22.574 1.73 9.387-14.917 14.915-9.388-1.727zm-84.308-80.95l5.848-5.848 56.695 56.696c.52.522 1.203.785 1.887.785.685 0 1.367-.262 1.89-.784 1.043-1.043 1.043-2.73 0-3.772l-56.697-56.7 6.244-6.24 11.767 11.765c.52.522 1.205.782 1.89.782.68 0 1.364-.26 1.886-.783 1.043-1.044 1.043-2.733 0-3.774l-11.766-11.77 6.29-6.29 78.854 78.855-6.29 6.29-57.047-57.046c-1.043-1.043-2.734-1.043-3.777 0-1.043 1.043-1.043 2.732 0 3.775l57.05 57.047-6.245 6.242L92.864 98.06c-1.043-1.043-2.734-1.043-3.777 0s-1.043 2.733 0 3.776l12.12 12.117-5.847 5.844-78.856-78.852zm100.07 83.853l9.715-9.714 2.194 11.91-11.91-2.195z"/></svg>