<svg xmlns="http://www.w3.org/2000/svg" width="144" height="144" viewBox="0 0 144 144"><g><path d="M46.61 72.272c0 14.176 11.53 25.71 25.71 25.71 14.177 0 25.708-11.534 25.708-25.71s-11.53-25.71-25.707-25.71c-14.178 0-25.71 11.535-25.71 25.71zm43.352 0c0 9.73-7.914 17.645-17.64 17.645-9.73 0-17.646-7.914-17.646-17.645 0-9.727 7.914-17.64 17.645-17.64 9.728 0 17.642 7.914 17.642 17.64zM131.855 71.808l-7.71-3.852c-.353-4.113-1.2-8.14-2.523-12.043l5.637-7.273c2.022-2.61 2.25-6.19.573-9.04-2.63-4.46-5.797-8.6-9.418-12.31-1.556-1.59-3.647-2.43-5.776-2.43-1.14 0-2.286.237-3.364.733l-8.13 3.734c-3.766-2.492-7.858-4.496-12.14-5.94l-2.22-8.993c-.806-3.266-3.552-5.688-6.892-6.082-2.57-.3-5.117-.453-7.574-.453s-5.008.15-7.578.452c-3.34.395-6.086 2.816-6.89 6.082l-2.22 8.992c-4.28 1.445-8.38 3.45-12.14 5.94l-8.13-3.733c-1.078-.496-2.227-.734-3.363-.734-2.13 0-4.224.84-5.778 2.43-3.617 3.706-6.785 7.847-9.418 12.31-1.676 2.845-1.45 6.427.574 9.04l5.637 7.273c-1.324 3.902-2.168 7.93-2.523 12.043l-7.71 3.852C9.733 73.33 7.97 76.6 8.374 79.984c.64 5.367 1.96 10.637 3.918 15.668 1.19 3.055 4.11 5.086 7.387 5.14l9.207.153c2.02 3.05 4.352 5.87 6.98 8.438l-1.836 8.66c-.694 3.277.712 6.648 3.536 8.46 4.676 3.005 9.72 5.388 14.984 7.083.812.262 1.648.39 2.473.39 2.36 0 4.652-1.038 6.215-2.92l5.87-7.083c1.73.172 3.474.262 5.212.262 1.734 0 3.477-.09 5.207-.262l5.875 7.082c1.56 1.883 3.853 2.922 6.21 2.922.825 0 1.657-.13 2.475-.39 5.263-1.696 10.306-4.08 14.983-7.083 2.824-1.812 4.23-5.18 3.535-8.46l-1.836-8.66c2.628-2.567 4.96-5.388 6.98-8.44l9.206-.15c3.277-.056 6.195-2.087 7.383-5.138 1.96-5.027 3.28-10.3 3.92-15.672.405-3.382-1.358-6.653-4.405-8.176zm-31.65-33.168l12.437-5.715c3.16 3.238 5.93 6.852 8.24 10.773l-4.886 6.3c-.51-1-1.043-1.99-1.625-2.96-.762-1.273-2.417-1.688-3.687-.922-1.272.766-1.688 2.418-.922 3.69 3.224 5.372 5.22 11.282 5.93 17.57 2.7 23.915-14.56 45.57-38.476 48.27-11.586 1.307-22.988-1.976-32.105-9.24-9.118-7.27-14.856-17.652-16.165-29.238-1.31-11.586 1.977-22.988 9.242-32.102 2.238-2.81 4.773-5.293 7.543-7.426.074-.055.145-.113.215-.168.312-.234.63-.457.945-.684 4.578-3.238 9.805-5.63 15.453-6.934l.02-.074c1.656-.383 3.344-.688 5.06-.883 5.015-.566 9.995-.27 14.848.867l.023.09c6.686 1.543 12.782 4.594 17.91 8.786zm-34.52-22.313c2.176-.258 4.39-.402 6.637-.402s4.458.145 6.633.402l1.89 7.664c-4.603-.815-9.3-.972-14.02-.437-1.02.117-2.028.273-3.032.45l1.892-7.676zM31.997 32.925l7.117 3.27c-1.832 1.69-3.547 3.53-5.133 5.516-2.077 2.61-3.862 5.384-5.347 8.282l-4.88-6.293c2.314-3.924 5.084-7.537 8.244-10.775zm-15.61 46.1l7.017-3.504c.05.747.113 1.497.2 2.25.597 5.303 2.034 10.376 4.206 15.083l-7.996-.13c-1.688-4.332-2.856-8.918-3.426-13.698zm25.54 40.69l1.637-7.734c5.043 3.66 10.645 6.286 16.543 7.802l-5.078 6.125c-4.666-1.502-9.06-3.598-13.103-6.193zm47.686 6.19l-5.104-6.152c6.09-1.56 11.676-4.242 16.56-7.793l1.644 7.754c-4.045 2.598-8.44 4.69-13.1 6.19zm35.212-33.178l-8.023.13c2.496-5.364 4.023-11.23 4.427-17.337l7.02 3.508c-.568 4.777-1.736 9.363-3.425 13.7zM34.938 72.272c0 8.434 2.887 16.7 8.13 23.277.53.667 1.315 1.015 2.104 1.015.59 0 1.18-.19 1.676-.586 1.16-.927 1.352-2.618.426-3.78-4.55-5.713-6.957-12.604-6.957-19.927 0-17.648 14.355-32.004 32.004-32.004 3.415 0 6.774.534 9.99 1.585 1.413.47 2.93-.31 3.39-1.72.466-1.41-.305-2.93-1.715-3.39-3.758-1.23-7.684-1.855-11.664-1.855-20.612 0-37.382 16.77-37.382 37.382zM104.32 72.272c0 17.645-14.354 32.003-32 32.003-5.113 0-9.996-1.164-14.504-3.465-1.324-.672-2.945-.147-3.62 1.176-.673 1.324-.15 2.94 1.175 3.617 5.274 2.688 10.978 4.052 16.95 4.052 20.61 0 37.38-16.77 37.38-37.383 0-9.086-3.294-17.84-9.278-24.656-.98-1.113-2.68-1.223-3.797-.246-1.117.98-1.228 2.68-.246 3.797 5.12 5.832 7.94 13.328 7.94 21.105z"/></g></svg>