<svg xmlns="http://www.w3.org/2000/svg" width="162" height="144" viewBox="0 0 162 144"><g><path d="M81.383 8.242c-24.357 0-44.174 19.816-44.174 44.176 0 17.426 9.966 32.875 25.618 40.09v5.082c0 2.2 1.78 3.984 3.984 3.984h29.143c2.2 0 3.984-1.785 3.984-3.984v-5.082c15.653-7.215 25.618-22.664 25.618-40.09 0-24.36-19.816-44.176-44.175-44.176zM94.51 86.16c-1.53.598-2.54 2.07-2.54 3.715v3.73H70.798v-3.73c0-1.645-1.008-3.117-2.54-3.715-14.02-5.457-23.08-18.703-23.08-33.742 0-19.965 16.243-36.207 36.206-36.207 19.965 0 36.207 16.243 36.207 36.208 0 15.035-9.06 28.28-23.08 33.742zM111.285 45.664c-.322-1.43-1.74-2.324-3.176-2.008-1.43.324-2.33 1.746-2.007 3.18.408 1.812.617 3.69.617 5.582 0 .965-.057 1.94-.166 2.895-.168 1.46.88 2.777 2.336 2.945.104.012.207.016.307.016 1.33 0 2.48-1 2.635-2.352.133-1.16.2-2.336.2-3.504 0-2.285-.25-4.555-.747-6.754zM105.992 34.145c-4.555-6.12-11.158-10.31-18.6-11.785-1.432-.285-2.838.648-3.123 2.086s.647 2.836 2.087 3.125c6.146 1.22 11.605 4.685 15.373 9.747.52.7 1.32 1.07 2.133 1.07.55 0 1.105-.172 1.582-.527 1.178-.876 1.422-2.54.547-3.715zM91.113 106.656h-19.92c-2.2 0-3.984 1.78-3.984 3.984 0 2.2 1.782 3.984 3.983 3.984h19.92c2.2 0 3.984-1.785 3.984-3.984 0-2.202-1.785-3.984-3.984-3.984zM89.02 119.098H73.748c-2.2 0-3.984 1.785-3.984 3.984s1.783 3.984 3.984 3.984H89.02c2.2 0 3.984-1.785 3.984-3.984s-1.785-3.984-3.984-3.984zM84.777 130.93h-6.79c-1.466 0-2.655 1.188-2.655 2.656s1.19 2.656 2.656 2.656h6.79c1.466 0 2.655-1.188 2.655-2.656s-1.19-2.656-2.656-2.656zM95.193 51.117c-1.37-.535-2.908.133-3.447 1.496l-10.363 26.23-8.926-22.598H83.54c1.466 0 2.655-1.19 2.655-2.656s-1.19-2.657-2.656-2.657H68.552c-.068 0-.133.016-.2.02-.1.008-.196.012-.296.03-.104.02-.2.056-.297.083-.06.02-.123.027-.182.05-.01.01-.016.013-.025.017-.105.043-.203.102-.3.156-.058.03-.116.054-.17.09-.08.05-.15.12-.226.183-.057.047-.12.09-.174.14-.07.07-.123.15-.184.22-.048.062-.103.113-.144.172-.062.094-.11.195-.162.297-.025.05-.06.098-.082.148-.037.086-.06.18-.086.27-.023.074-.055.148-.07.227-.016.066-.018.137-.025.203-.013.11-.03.215-.032.324l-.002.027c0 .067.014.126.02.19.006.104.01.206.03.308s.052.2.083.297c.02.062.028.12.052.184L78.76 86.66c.412 1.046 1.414 1.683 2.47 1.683.052 0 .103-.012.155-.016.05.004.102.016.152.016 1.057 0 2.06-.637 2.47-1.684l12.68-32.09c.54-1.367-.128-2.91-1.494-3.453zM155.58 52.137h-20c-1.437 0-2.6-1.164-2.6-2.6s1.163-2.6 2.6-2.6h20c1.437 0 2.6 1.164 2.6 2.6s-1.163 2.6-2.6 2.6zM132.52 32.71c-1.082 0-2.092-.68-2.46-1.76-.466-1.36.26-2.84 1.617-3.304l18.926-6.473c1.36-.46 2.837.26 3.302 1.62s-.26 2.837-1.618 3.302l-18.926 6.473c-.28.094-.562.14-.84.14zM151.444 78.04c-.28 0-.562-.046-.842-.14l-18.926-6.473c-1.358-.465-2.083-1.943-1.618-3.303s1.944-2.072 3.302-1.62l18.926 6.474c1.358.465 2.083 1.943 1.618 3.303-.37 1.08-1.38 1.76-2.46 1.76zM27.188 52.137H7.186c-1.436 0-2.6-1.164-2.6-2.6s1.164-2.6 2.6-2.6h20.002c1.436 0 2.6 1.164 2.6 2.6s-1.165 2.6-2.6 2.6zM30.248 32.71c-.28 0-.562-.048-.842-.142L10.48 26.096c-1.358-.465-2.083-1.943-1.618-3.303s1.94-2.074 3.302-1.62l18.926 6.474c1.358.465 2.083 1.943 1.618 3.303-.37 1.08-1.38 1.76-2.46 1.76zM11.322 78.04c-1.08 0-2.09-.68-2.46-1.76-.465-1.358.26-2.837 1.618-3.302l18.926-6.473c1.356-.457 2.837.26 3.302 1.62s-.26 2.837-1.618 3.302L12.164 77.9c-.28.094-.562.14-.842.14z"/></g></svg>