<?xml version="1.0" encoding="utf-8"?>
<!-- Generator: Adobe Illustrator 16.0.0, SVG Export Plug-In . SVG Version: 6.00 Build 0)  -->
<!DOCTYPE svg PUBLIC "-//W3C//DTD SVG 1.1//EN" "http://www.w3.org/Graphics/SVG/1.1/DTD/svg11.dtd">
<svg version="1.1" xmlns="http://www.w3.org/2000/svg" xmlns:xlink="http://www.w3.org/1999/xlink" x="0px" y="0px"
	 width="561.604px" height="706.878px" viewBox="0 0 561.604 706.878" enable-background="new 0 0 561.604 706.878"
	 xml:space="preserve">
<g id="white_x2F_red" display="none">
	<g id="text_2_">
		<g display="inline">
			<g>
				<rect x="-722.289" y="611.025" fill="none" width="560.035" height="94.943"/>
				<text transform="matrix(1 0 0 1 -654.3174 704.2334)"><tspan x="0" y="0" fill="#BE1E2D" font-family="'PTSans-NarrowBold'" font-size="133.1546" letter-spacing="26">r</tspan><tspan x="93.606" y="0" fill="#FFFFFF" font-family="'PTSans-NarrowBold'" font-size="133.1546" letter-spacing="26">3</tspan><tspan x="183.885" y="0" fill="#BE1E2D" font-family="'PTSans-NarrowBold'" font-size="133.1546" letter-spacing="26">d m</tspan></text>
			</g>
			<g>
				<rect x="-723.072" fill="#FFFFFF" width="156.828" height="539.013"/>
				<rect x="-318.297" fill="#FFFFFF" width="156.828" height="539.013"/>
				<rect x="-520.688" fill="#FFFFFF" width="156.827" height="539.013"/>
			</g>
		</g>
		<g display="inline">
			<g>
				<rect x="-722.289" y="793.043" fill="none" width="560.035" height="94.943"/>
				<text transform="matrix(1 0 0 1 -654.3174 886.251)"><tspan x="0" y="0" fill="#BE1E2D" font-family="'PTSans-NarrowBold'" font-size="133.1546" letter-spacing="26">r</tspan><tspan x="93.606" y="0" fill="#FFFFFF" font-family="'PTSans-NarrowBold'" font-size="133.1546" letter-spacing="26">3</tspan><tspan x="183.885" y="0" fill="#BE1E2D" font-family="'PTSans-NarrowBold'" font-size="133.1546" letter-spacing="26">d m</tspan></text>
			</g>
		</g>
		<g display="inline">
			<g>
				<rect x="3.783" y="793.043" fill="none" width="560.035" height="94.943"/>
				<text transform="matrix(1 0 0 1 71.7559 886.251)"><tspan x="0" y="0" fill="#C1272D" font-family="'PTSans-NarrowBold'" font-size="133.1546" letter-spacing="26">r</tspan><tspan x="93.605" y="0" fill="#FFFFFF" font-family="'PTSans-NarrowBold'" font-size="133.1546" letter-spacing="26">3</tspan><tspan x="183.885" y="0" fill="#C1272D" font-family="'PTSans-NarrowBold'" font-size="133.1546" letter-spacing="26">d m</tspan></text>
			</g>
		</g>
		<g display="inline">
			<g>
				<rect x="-723.072" y="966.097" fill="#FFFFFF" width="156.828" height="539.013"/>
				<rect x="-318.297" y="966.097" fill="#FFFFFF" width="156.828" height="539.013"/>
				<rect x="-520.688" y="966.097" fill="#FFFFFF" width="156.827" height="539.013"/>
			</g>
		</g>
		<g display="inline">
			<g>
				<rect x="3" y="960.096" fill="#FFFFFF" width="156.828" height="539.013"/>
				<rect x="407.775" y="960.096" fill="#FFFFFF" width="156.828" height="539.013"/>
				<rect x="205.385" y="960.096" fill="#FFFFFF" width="156.827" height="539.013"/>
			</g>
		</g>
		<g display="inline">
			<g>
				<rect x="0.783" y="611.025" fill="none" width="560.035" height="94.943"/>
				<text transform="matrix(1 0 0 1 68.7559 704.2334)"><tspan x="0" y="0" fill="#C1272D" font-family="'PTSans-NarrowBold'" font-size="133.1546" letter-spacing="26">r</tspan><tspan x="93.605" y="0" fill="#FFFFFF" font-family="'PTSans-NarrowBold'" font-size="133.1546" letter-spacing="26">3</tspan><tspan x="183.885" y="0" fill="#C1272D" font-family="'PTSans-NarrowBold'" font-size="133.1546" letter-spacing="26">d m</tspan></text>
			</g>
			<g>
				<rect fill="#FFFFFF" width="156.828" height="539.013"/>
				<rect x="404.775" fill="#FFFFFF" width="156.828" height="539.013"/>
				<rect x="202.385" fill="#FFFFFF" width="156.827" height="539.013"/>
			</g>
		</g>
	</g>
	<g id="outlines_2_" display="inline">
		<g>
			<g>
				<g>
					<path fill="#BE1E2D" d="M-647.526,611.957c3.639-0.799,7.544-1.375,11.717-1.73c4.172-0.354,7.767-0.532,10.786-0.532
						c3.815,0,7.544,0.378,11.185,1.131c3.639,0.756,6.857,2.131,9.654,4.128c2.796,1.998,5.06,4.706,6.79,8.122
						c1.731,3.419,2.597,7.746,2.597,12.983c0,7.546-1.397,13.693-4.194,18.441c-2.796,4.75-6.637,8.013-11.518,9.787l5.326,4.261
						l17.177,35.686h-19.308l-16.244-36.751l-7.19-1.73v38.481h-16.777V611.957z M-630.749,654.301h5.726
						c4.171,0,7.323-1.266,9.454-3.795c2.13-2.53,3.195-6.458,3.195-11.784c0-3.995-0.889-7.257-2.663-9.787
						c-1.776-2.53-4.573-3.795-8.389-3.795c-1.421,0-2.796,0.046-4.128,0.133c-1.331,0.09-2.396,0.267-3.195,0.533V654.301z"/>
					<path fill="#FFFFFF" d="M-533.281,691.983c4.349,0,7.656-1.465,9.92-4.395c2.264-2.929,3.396-6.657,3.396-11.185
						c0-10.03-4.973-15.047-14.913-15.047h-7.856v-9.055l13.183-22.369l6.391-5.992l-8.788,1.198h-18.242v-14.114h42.609v9.454
						l-15.445,25.401l-4.927,3.626v0.666l4.927-0.799c2.484,0.177,4.881,0.84,7.19,1.988c2.307,1.148,4.327,2.784,6.059,4.904
						c1.73,2.12,3.105,4.771,4.128,7.952c1.019,3.181,1.531,6.937,1.531,11.264c0,5.214-0.732,9.721-2.197,13.52
						s-3.462,6.98-5.992,9.541c-2.53,2.563-5.505,4.463-8.921,5.699c-3.419,1.235-7.08,1.855-10.985,1.855
						c-3.285,0-6.748-0.355-10.387-1.065c-3.641-0.712-6.524-1.73-8.654-3.062l4.261-13.315c1.864,0.978,3.905,1.776,6.125,2.396
						C-538.653,691.673-536.123,691.983-533.281,691.983z"/>
					<path fill="#BE1E2D" d="M-463.642,611.025c1.598-0.267,3.395-0.466,5.393-0.6c1.997-0.133,4.038-0.266,6.125-0.399
						c2.085-0.133,4.104-0.22,6.059-0.266c1.951-0.044,3.683-0.066,5.193-0.066c7.367,0,13.515,1.131,18.441,3.395
						s8.876,5.46,11.851,9.587c2.974,4.128,5.081,9.078,6.325,14.847c1.242,5.771,1.864,12.207,1.864,19.308
						c0,6.481-0.6,12.673-1.798,18.575c-1.198,5.904-3.308,11.098-6.324,15.579c-3.02,4.483-7.104,8.056-12.251,10.719
						c-5.149,2.663-11.63,3.995-19.44,3.995c-1.154,0-2.709-0.046-4.66-0.133c-1.954-0.09-3.995-0.2-6.125-0.333
						c-2.131-0.134-4.174-0.267-6.126-0.399c-1.953-0.134-3.462-0.29-4.526-0.467V611.025z M-439.142,625.14
						c-1.421,0-2.862,0.022-4.327,0.066c-1.465,0.046-2.597,0.156-3.396,0.333v64.181c0.266,0.089,0.732,0.156,1.398,0.199
						c0.665,0.046,1.375,0.09,2.13,0.134c0.753,0.046,1.465,0.089,2.131,0.133c0.666,0.046,1.132,0.066,1.397,0.066
						c3.995,0,7.278-0.932,9.854-2.796c2.574-1.864,4.594-4.349,6.059-7.457c1.465-3.106,2.484-6.679,3.062-10.719
						c0.577-4.038,0.866-8.276,0.866-12.716c0-4.082-0.246-8.033-0.732-11.852c-0.489-3.815-1.421-7.167-2.797-10.053
						c-1.377-2.884-3.328-5.193-5.858-6.924C-431.885,626.005-435.146,625.14-439.142,625.14z"/>
					<path fill="#BE1E2D" d="M-253.792,656.165l1.864-17.843h-0.666l-4.927,15.979l-15.18,32.756h-5.593l-16.111-32.89
						l-4.927-16.111h-0.799l2.529,17.976v48.202h-15.845v-93.208h16.111l19.44,40.346l3.196,11.584h0.532l3.062-11.851
						l18.242-40.079h15.846v93.208h-16.777V656.165z"/>
				</g>
			</g>
			<g>
				<rect x="-723.072" fill="#FFFFFF" width="156.828" height="539.013"/>
				<rect x="-318.297" fill="#FFFFFF" width="156.828" height="539.013"/>
				<rect x="-520.688" fill="#FFFFFF" width="156.827" height="539.013"/>
			</g>
		</g>
		<g>
			<g>
				<g>
					<path fill="#BE1E2D" d="M-647.526,793.975c3.639-0.799,7.544-1.375,11.717-1.73c4.172-0.354,7.767-0.532,10.786-0.532
						c3.815,0,7.544,0.378,11.185,1.131c3.639,0.756,6.857,2.131,9.654,4.128c2.796,1.998,5.06,4.706,6.79,8.122
						c1.731,3.419,2.597,7.746,2.597,12.983c0,7.546-1.397,13.693-4.194,18.441c-2.796,4.75-6.637,8.013-11.518,9.787l5.326,4.261
						l17.177,35.686h-19.308l-16.244-36.751l-7.19-1.73v38.481h-16.777V793.975z M-630.749,836.318h5.726
						c4.171,0,7.323-1.266,9.454-3.795c2.13-2.53,3.195-6.458,3.195-11.784c0-3.995-0.889-7.257-2.663-9.787
						c-1.776-2.53-4.573-3.795-8.389-3.795c-1.421,0-2.796,0.046-4.128,0.133c-1.331,0.09-2.396,0.267-3.195,0.533V836.318z"/>
					<path fill="#FFFFFF" d="M-533.281,874.001c4.349,0,7.656-1.465,9.92-4.395c2.264-2.929,3.396-6.657,3.396-11.185
						c0-10.03-4.973-15.047-14.913-15.047h-7.856v-9.055l13.183-22.369l6.391-5.992l-8.788,1.198h-18.242v-14.114h42.609v9.454
						l-15.445,25.401l-4.927,3.626v0.666l4.927-0.799c2.484,0.177,4.881,0.84,7.19,1.988c2.307,1.148,4.327,2.784,6.059,4.904
						c1.73,2.12,3.105,4.771,4.128,7.952c1.019,3.181,1.531,6.937,1.531,11.264c0,5.214-0.732,9.721-2.197,13.52
						s-3.462,6.98-5.992,9.541c-2.53,2.563-5.505,4.463-8.921,5.699c-3.419,1.235-7.08,1.855-10.985,1.855
						c-3.285,0-6.748-0.355-10.387-1.065c-3.641-0.712-6.524-1.73-8.654-3.062l4.261-13.315c1.864,0.978,3.905,1.776,6.125,2.396
						C-538.653,873.69-536.123,874.001-533.281,874.001z"/>
					<path fill="#BE1E2D" d="M-463.642,793.043c1.598-0.267,3.395-0.466,5.393-0.6c1.997-0.133,4.038-0.266,6.125-0.399
						c2.085-0.133,4.104-0.22,6.059-0.266c1.951-0.044,3.683-0.066,5.193-0.066c7.367,0,13.515,1.131,18.441,3.395
						s8.876,5.46,11.851,9.587c2.974,4.128,5.081,9.078,6.325,14.847c1.242,5.771,1.864,12.207,1.864,19.308
						c0,6.481-0.6,12.673-1.798,18.575c-1.198,5.904-3.308,11.098-6.324,15.579c-3.02,4.483-7.104,8.056-12.251,10.719
						c-5.149,2.663-11.63,3.995-19.44,3.995c-1.154,0-2.709-0.046-4.66-0.133c-1.954-0.09-3.995-0.2-6.125-0.333
						c-2.131-0.134-4.174-0.267-6.126-0.399c-1.953-0.134-3.462-0.29-4.526-0.467V793.043z M-439.142,807.157
						c-1.421,0-2.862,0.022-4.327,0.066c-1.465,0.046-2.597,0.156-3.396,0.333v64.181c0.266,0.089,0.732,0.156,1.398,0.199
						c0.665,0.046,1.375,0.09,2.13,0.134c0.753,0.046,1.465,0.089,2.131,0.133c0.666,0.046,1.132,0.066,1.397,0.066
						c3.995,0,7.278-0.932,9.854-2.796c2.574-1.864,4.594-4.349,6.059-7.457c1.465-3.106,2.484-6.679,3.062-10.719
						c0.577-4.038,0.866-8.276,0.866-12.716c0-4.082-0.246-8.033-0.732-11.852c-0.489-3.815-1.421-7.167-2.797-10.053
						c-1.377-2.884-3.328-5.193-5.858-6.924C-431.885,808.022-435.146,807.157-439.142,807.157z"/>
					<path fill="#BE1E2D" d="M-253.792,838.183l1.864-17.843h-0.666l-4.927,15.979l-15.18,32.756h-5.593l-16.111-32.89
						l-4.927-16.111h-0.799l2.529,17.976v48.202h-15.845v-93.208h16.111l19.44,40.346l3.196,11.584h0.532l3.062-11.851
						l18.242-40.079h15.846v93.208h-16.777V838.183z"/>
				</g>
			</g>
		</g>
		<g>
			<g>
				<g>
					<path fill="#C1272D" d="M78.546,793.975c3.639-0.799,7.544-1.375,11.717-1.73c4.172-0.354,7.767-0.532,10.786-0.532
						c3.815,0,7.544,0.378,11.185,1.131c3.639,0.756,6.857,2.131,9.654,4.128c2.796,1.998,5.06,4.706,6.79,8.122
						c1.731,3.419,2.597,7.746,2.597,12.983c0,7.546-1.397,13.693-4.194,18.441c-2.796,4.75-6.637,8.013-11.518,9.787l5.326,4.261
						l17.177,35.686h-19.308L102.514,849.5l-7.19-1.73v38.481H78.546V793.975z M95.323,836.318h5.726
						c4.171,0,7.323-1.266,9.454-3.795c2.13-2.53,3.195-6.458,3.195-11.784c0-3.995-0.889-7.257-2.663-9.787
						c-1.776-2.53-4.573-3.795-8.389-3.795c-1.421,0-2.796,0.046-4.128,0.133c-1.331,0.09-2.396,0.267-3.195,0.533V836.318z"/>
					<path fill="#FFFFFF" d="M192.791,874.001c4.349,0,7.656-1.465,9.92-4.395c2.264-2.929,3.396-6.657,3.396-11.185
						c0-10.03-4.973-15.047-14.913-15.047h-7.856v-9.055l13.183-22.369l6.391-5.992l-8.788,1.198H175.88v-14.114h42.609v9.454
						l-15.445,25.401l-4.927,3.626v0.666l4.927-0.799c2.484,0.177,4.881,0.84,7.19,1.988c2.307,1.148,4.327,2.784,6.059,4.904
						c1.73,2.12,3.105,4.771,4.128,7.952c1.019,3.181,1.531,6.937,1.531,11.264c0,5.214-0.732,9.721-2.197,13.52
						s-3.462,6.98-5.992,9.541c-2.53,2.563-5.505,4.463-8.921,5.699c-3.419,1.235-7.08,1.855-10.985,1.855
						c-3.285,0-6.748-0.355-10.387-1.065c-3.641-0.712-6.524-1.73-8.654-3.062l4.261-13.315c1.864,0.978,3.905,1.776,6.125,2.396
						C187.419,873.69,189.949,874.001,192.791,874.001z"/>
					<path fill="#C1272D" d="M262.431,793.043c1.598-0.267,3.395-0.466,5.393-0.6c1.997-0.133,4.038-0.266,6.125-0.399
						c2.085-0.133,4.104-0.22,6.059-0.266c1.951-0.044,3.683-0.066,5.193-0.066c7.367,0,13.515,1.131,18.441,3.395
						s8.876,5.46,11.851,9.587c2.974,4.128,5.081,9.078,6.325,14.847c1.242,5.771,1.864,12.207,1.864,19.308
						c0,6.481-0.6,12.673-1.798,18.575c-1.198,5.904-3.308,11.098-6.324,15.579c-3.02,4.483-7.104,8.056-12.251,10.719
						c-5.149,2.663-11.63,3.995-19.44,3.995c-1.154,0-2.709-0.046-4.66-0.133c-1.954-0.09-3.995-0.2-6.125-0.333
						c-2.131-0.134-4.174-0.267-6.126-0.399c-1.953-0.134-3.462-0.29-4.526-0.467V793.043z M286.931,807.157
						c-1.421,0-2.862,0.022-4.327,0.066c-1.465,0.046-2.597,0.156-3.396,0.333v64.181c0.266,0.089,0.732,0.156,1.398,0.199
						c0.665,0.046,1.375,0.09,2.13,0.134c0.753,0.046,1.465,0.089,2.131,0.133c0.666,0.046,1.132,0.066,1.397,0.066
						c3.995,0,7.278-0.932,9.854-2.796c2.574-1.864,4.594-4.349,6.059-7.457c1.465-3.106,2.484-6.679,3.062-10.719
						c0.577-4.038,0.866-8.276,0.866-12.716c0-4.082-0.246-8.033-0.732-11.852c-0.489-3.815-1.421-7.167-2.797-10.053
						c-1.377-2.884-3.328-5.193-5.858-6.924C294.188,808.022,290.926,807.157,286.931,807.157z"/>
					<path fill="#C1272D" d="M472.28,838.183l1.864-17.843h-0.666l-4.927,15.979l-15.18,32.756h-5.593l-16.111-32.89l-4.927-16.111
						h-0.799l2.529,17.976v48.202h-15.845v-93.208h16.111l19.44,40.346l3.196,11.584h0.532l3.062-11.851l18.242-40.079h15.846
						v93.208H472.28V838.183z"/>
				</g>
			</g>
		</g>
		<g>
			<g>
				<rect x="-723.072" y="966.097" fill="#FFFFFF" width="156.828" height="539.013"/>
				<rect x="-318.297" y="966.097" fill="#FFFFFF" width="156.828" height="539.013"/>
				<rect x="-520.688" y="966.097" fill="#FFFFFF" width="156.827" height="539.013"/>
			</g>
		</g>
		<g>
			<g>
				<rect x="3" y="960.096" fill="#FFFFFF" width="156.828" height="539.013"/>
				<rect x="407.775" y="960.096" fill="#FFFFFF" width="156.828" height="539.013"/>
				<rect x="205.385" y="960.096" fill="#FFFFFF" width="156.827" height="539.013"/>
			</g>
		</g>
		<g>
			<g>
				<g>
					<path fill="#C1272D" d="M75.546,611.957c3.639-0.799,7.544-1.375,11.717-1.73c4.172-0.354,7.767-0.532,10.786-0.532
						c3.815,0,7.544,0.378,11.185,1.131c3.639,0.756,6.857,2.131,9.654,4.128c2.796,1.998,5.06,4.706,6.79,8.122
						c1.731,3.419,2.597,7.746,2.597,12.983c0,7.546-1.397,13.693-4.194,18.441c-2.796,4.75-6.637,8.013-11.518,9.787l5.326,4.261
						l17.177,35.686h-19.308l-16.244-36.751l-7.19-1.73v38.481H75.546V611.957z M92.323,654.301h5.726
						c4.171,0,7.323-1.266,9.454-3.795c2.13-2.53,3.195-6.458,3.195-11.784c0-3.995-0.889-7.257-2.663-9.787
						c-1.776-2.53-4.573-3.795-8.389-3.795c-1.421,0-2.796,0.046-4.128,0.133c-1.331,0.09-2.396,0.267-3.195,0.533V654.301z"/>
					<path fill="#FFFFFF" d="M189.791,691.983c4.349,0,7.656-1.465,9.92-4.395c2.264-2.929,3.396-6.657,3.396-11.185
						c0-10.03-4.973-15.047-14.913-15.047h-7.856v-9.055l13.183-22.369l6.391-5.992l-8.788,1.198H172.88v-14.114h42.609v9.454
						l-15.445,25.401l-4.927,3.626v0.666l4.927-0.799c2.484,0.177,4.881,0.84,7.19,1.988c2.307,1.148,4.327,2.784,6.059,4.904
						c1.73,2.12,3.105,4.771,4.128,7.952c1.019,3.181,1.531,6.937,1.531,11.264c0,5.214-0.732,9.721-2.197,13.52
						s-3.462,6.98-5.992,9.541c-2.53,2.563-5.505,4.463-8.921,5.699c-3.419,1.235-7.08,1.855-10.985,1.855
						c-3.285,0-6.748-0.355-10.387-1.065c-3.641-0.712-6.524-1.73-8.654-3.062l4.261-13.315c1.864,0.978,3.905,1.776,6.125,2.396
						C184.419,691.673,186.949,691.983,189.791,691.983z"/>
					<path fill="#C1272D" d="M259.431,611.025c1.598-0.267,3.395-0.466,5.393-0.6c1.997-0.133,4.038-0.266,6.125-0.399
						c2.085-0.133,4.104-0.22,6.059-0.266c1.951-0.044,3.683-0.066,5.193-0.066c7.367,0,13.515,1.131,18.441,3.395
						s8.876,5.46,11.851,9.587c2.974,4.128,5.081,9.078,6.325,14.847c1.242,5.771,1.864,12.207,1.864,19.308
						c0,6.481-0.6,12.673-1.798,18.575c-1.198,5.904-3.308,11.098-6.324,15.579c-3.02,4.483-7.104,8.056-12.251,10.719
						c-5.149,2.663-11.63,3.995-19.44,3.995c-1.154,0-2.709-0.046-4.66-0.133c-1.954-0.09-3.995-0.2-6.125-0.333
						c-2.131-0.134-4.174-0.267-6.126-0.399c-1.953-0.134-3.462-0.29-4.526-0.467V611.025z M283.931,625.14
						c-1.421,0-2.862,0.022-4.327,0.066c-1.465,0.046-2.597,0.156-3.396,0.333v64.181c0.266,0.089,0.732,0.156,1.398,0.199
						c0.665,0.046,1.375,0.09,2.13,0.134c0.753,0.046,1.465,0.089,2.131,0.133c0.666,0.046,1.132,0.066,1.397,0.066
						c3.995,0,7.278-0.932,9.854-2.796c2.574-1.864,4.594-4.349,6.059-7.457c1.465-3.106,2.484-6.679,3.062-10.719
						c0.577-4.038,0.866-8.276,0.866-12.716c0-4.082-0.246-8.033-0.732-11.852c-0.489-3.815-1.421-7.167-2.797-10.053
						c-1.377-2.884-3.328-5.193-5.858-6.924C291.188,626.005,287.926,625.14,283.931,625.14z"/>
					<path fill="#C1272D" d="M469.28,656.165l1.864-17.843h-0.666l-4.927,15.979l-15.18,32.756h-5.593l-16.111-32.89l-4.927-16.111
						h-0.799l2.529,17.976v48.202h-15.845v-93.208h16.111l19.44,40.346l3.196,11.584h0.532l3.062-11.851l18.242-40.079h15.846
						v93.208H469.28V656.165z"/>
				</g>
			</g>
			<g>
				<rect fill="#FFFFFF" width="156.828" height="539.013"/>
				<rect x="404.775" fill="#FFFFFF" width="156.828" height="539.013"/>
				<rect x="202.385" fill="#FFFFFF" width="156.827" height="539.013"/>
			</g>
		</g>
	</g>
</g>
<g id="white_x2F_black" display="none">
	<g id="text_1_">
		<g display="inline">
			<g>
				<rect x="-722.289" y="611.025" fill="none" width="560.035" height="94.943"/>
				<text transform="matrix(1 0 0 1 -654.3174 704.2334)"><tspan x="0" y="0" font-family="'PTSans-NarrowBold'" font-size="133.1546" letter-spacing="26">r</tspan><tspan x="93.606" y="0" fill="#FFFFFF" font-family="'PTSans-NarrowBold'" font-size="133.1546" letter-spacing="26">3</tspan><tspan x="183.885" y="0" font-family="'PTSans-NarrowBold'" font-size="133.1546" letter-spacing="26">d m</tspan></text>
			</g>
			<g>
				<rect x="-723.072" fill="#FFFFFF" width="156.828" height="539.013"/>
				<rect x="-318.297" fill="#FFFFFF" width="156.828" height="539.013"/>
				<rect x="-520.688" fill="#FFFFFF" width="156.827" height="539.013"/>
			</g>
		</g>
		<g display="inline">
			<g>
				<rect x="-722.289" y="793.043" fill="none" width="560.035" height="94.943"/>
				<text transform="matrix(1 0 0 1 -654.3174 886.251)"><tspan x="0" y="0" font-family="'PTSans-NarrowBold'" font-size="133.1546" letter-spacing="26">r</tspan><tspan x="93.606" y="0" fill="#FFFFFF" font-family="'PTSans-NarrowBold'" font-size="133.1546" letter-spacing="26">3</tspan><tspan x="183.885" y="0" font-family="'PTSans-NarrowBold'" font-size="133.1546" letter-spacing="26">d m</tspan></text>
			</g>
		</g>
		<g display="inline">
			<g>
				<rect x="3.783" y="793.043" fill="none" width="560.035" height="94.943"/>
				<text transform="matrix(1 0 0 1 71.7559 886.251)"><tspan x="0" y="0" font-family="'PTSans-NarrowBold'" font-size="133.1546" letter-spacing="26">r</tspan><tspan x="93.605" y="0" fill="#FFFFFF" font-family="'PTSans-NarrowBold'" font-size="133.1546" letter-spacing="26">3</tspan><tspan x="183.885" y="0" font-family="'PTSans-NarrowBold'" font-size="133.1546" letter-spacing="26">d m</tspan></text>
			</g>
		</g>
		<g display="inline">
			<g>
				<rect x="-723.072" y="966.097" fill="#FFFFFF" width="156.828" height="539.013"/>
				<rect x="-318.297" y="966.097" fill="#FFFFFF" width="156.828" height="539.013"/>
				<rect x="-520.688" y="966.097" fill="#FFFFFF" width="156.827" height="539.013"/>
			</g>
		</g>
		<g display="inline">
			<g>
				<rect x="3" y="960.096" fill="#FFFFFF" width="156.828" height="539.013"/>
				<rect x="407.775" y="960.096" fill="#FFFFFF" width="156.828" height="539.013"/>
				<rect x="205.385" y="960.096" fill="#FFFFFF" width="156.827" height="539.013"/>
			</g>
		</g>
		<g display="inline">
			<g>
				<rect x="0.783" y="611.025" fill="none" width="560.035" height="94.943"/>
				<text transform="matrix(1 0 0 1 68.7559 704.2334)"><tspan x="0" y="0" font-family="'PTSans-NarrowBold'" font-size="133.1546" letter-spacing="26">r</tspan><tspan x="93.605" y="0" fill="#FFFFFF" font-family="'PTSans-NarrowBold'" font-size="133.1546" letter-spacing="26">3</tspan><tspan x="183.885" y="0" font-family="'PTSans-NarrowBold'" font-size="133.1546" letter-spacing="26">d m</tspan></text>
			</g>
			<g>
				<rect fill="#FFFFFF" width="156.828" height="539.013"/>
				<rect x="404.775" fill="#FFFFFF" width="156.828" height="539.013"/>
				<rect x="202.385" fill="#FFFFFF" width="156.827" height="539.013"/>
			</g>
		</g>
	</g>
	<g id="outlines_1_" display="inline">
		<g>
			<g>
				<g>
					<path d="M-647.526,611.957c3.639-0.799,7.544-1.375,11.717-1.73c4.172-0.354,7.767-0.532,10.786-0.532
						c3.815,0,7.544,0.378,11.185,1.131c3.639,0.756,6.857,2.131,9.654,4.128c2.796,1.998,5.06,4.706,6.79,8.122
						c1.731,3.419,2.597,7.746,2.597,12.983c0,7.546-1.397,13.693-4.194,18.441c-2.796,4.75-6.637,8.013-11.518,9.787l5.326,4.261
						l17.177,35.686h-19.308l-16.244-36.751l-7.19-1.73v38.481h-16.777V611.957z M-630.749,654.301h5.726
						c4.171,0,7.323-1.266,9.454-3.795c2.13-2.53,3.195-6.458,3.195-11.784c0-3.995-0.889-7.257-2.663-9.787
						c-1.776-2.53-4.573-3.795-8.389-3.795c-1.421,0-2.796,0.046-4.128,0.133c-1.331,0.09-2.396,0.267-3.195,0.533V654.301z"/>
					<path fill="#FFFFFF" d="M-533.281,691.983c4.349,0,7.656-1.465,9.92-4.395c2.264-2.929,3.396-6.657,3.396-11.185
						c0-10.03-4.973-15.047-14.913-15.047h-7.856v-9.055l13.183-22.369l6.391-5.992l-8.788,1.198h-18.242v-14.114h42.609v9.454
						l-15.445,25.401l-4.927,3.626v0.666l4.927-0.799c2.484,0.177,4.881,0.84,7.19,1.988c2.307,1.148,4.327,2.784,6.059,4.904
						c1.73,2.12,3.105,4.771,4.128,7.952c1.019,3.181,1.531,6.937,1.531,11.264c0,5.214-0.732,9.721-2.197,13.52
						s-3.462,6.98-5.992,9.541c-2.53,2.563-5.505,4.463-8.921,5.699c-3.419,1.235-7.08,1.855-10.985,1.855
						c-3.285,0-6.748-0.355-10.387-1.065c-3.641-0.712-6.524-1.73-8.654-3.062l4.261-13.315c1.864,0.978,3.905,1.776,6.125,2.396
						C-538.653,691.673-536.123,691.983-533.281,691.983z"/>
					<path d="M-463.642,611.025c1.598-0.267,3.395-0.466,5.393-0.6c1.997-0.133,4.038-0.266,6.125-0.399
						c2.085-0.133,4.104-0.22,6.059-0.266c1.951-0.044,3.683-0.066,5.193-0.066c7.367,0,13.515,1.131,18.441,3.395
						s8.876,5.46,11.851,9.587c2.974,4.128,5.081,9.078,6.325,14.847c1.242,5.771,1.864,12.207,1.864,19.308
						c0,6.481-0.6,12.673-1.798,18.575c-1.198,5.904-3.308,11.098-6.324,15.579c-3.02,4.483-7.104,8.056-12.251,10.719
						c-5.149,2.663-11.63,3.995-19.44,3.995c-1.154,0-2.709-0.046-4.66-0.133c-1.954-0.09-3.995-0.2-6.125-0.333
						c-2.131-0.134-4.174-0.267-6.126-0.399c-1.953-0.134-3.462-0.29-4.526-0.467V611.025z M-439.142,625.14
						c-1.421,0-2.862,0.022-4.327,0.066c-1.465,0.046-2.597,0.156-3.396,0.333v64.181c0.266,0.089,0.732,0.156,1.398,0.199
						c0.665,0.046,1.375,0.09,2.13,0.134c0.753,0.046,1.465,0.089,2.131,0.133c0.666,0.046,1.132,0.066,1.397,0.066
						c3.995,0,7.278-0.932,9.854-2.796c2.574-1.864,4.594-4.349,6.059-7.457c1.465-3.106,2.484-6.679,3.062-10.719
						c0.577-4.038,0.866-8.276,0.866-12.716c0-4.082-0.246-8.033-0.732-11.852c-0.489-3.815-1.421-7.167-2.797-10.053
						c-1.377-2.884-3.328-5.193-5.858-6.924C-431.885,626.005-435.146,625.14-439.142,625.14z"/>
					<path d="M-253.792,656.165l1.864-17.843h-0.666l-4.927,15.979l-15.18,32.756h-5.593l-16.111-32.89l-4.927-16.111h-0.799
						l2.529,17.976v48.202h-15.845v-93.208h16.111l19.44,40.346l3.196,11.584h0.532l3.062-11.851l18.242-40.079h15.846v93.208
						h-16.777V656.165z"/>
				</g>
			</g>
			<g>
				<rect x="-723.072" fill="#FFFFFF" width="156.828" height="539.013"/>
				<rect x="-318.297" fill="#FFFFFF" width="156.828" height="539.013"/>
				<rect x="-520.688" fill="#FFFFFF" width="156.827" height="539.013"/>
			</g>
		</g>
		<g>
			<g>
				<g>
					<path d="M-647.526,793.975c3.639-0.799,7.544-1.375,11.717-1.73c4.172-0.354,7.767-0.532,10.786-0.532
						c3.815,0,7.544,0.378,11.185,1.131c3.639,0.756,6.857,2.131,9.654,4.128c2.796,1.998,5.06,4.706,6.79,8.122
						c1.731,3.419,2.597,7.746,2.597,12.983c0,7.546-1.397,13.693-4.194,18.441c-2.796,4.75-6.637,8.013-11.518,9.787l5.326,4.261
						l17.177,35.686h-19.308l-16.244-36.751l-7.19-1.73v38.481h-16.777V793.975z M-630.749,836.318h5.726
						c4.171,0,7.323-1.266,9.454-3.795c2.13-2.53,3.195-6.458,3.195-11.784c0-3.995-0.889-7.257-2.663-9.787
						c-1.776-2.53-4.573-3.795-8.389-3.795c-1.421,0-2.796,0.046-4.128,0.133c-1.331,0.09-2.396,0.267-3.195,0.533V836.318z"/>
					<path fill="#FFFFFF" d="M-533.281,874.001c4.349,0,7.656-1.465,9.92-4.395c2.264-2.929,3.396-6.657,3.396-11.185
						c0-10.03-4.973-15.047-14.913-15.047h-7.856v-9.055l13.183-22.369l6.391-5.992l-8.788,1.198h-18.242v-14.114h42.609v9.454
						l-15.445,25.401l-4.927,3.626v0.666l4.927-0.799c2.484,0.177,4.881,0.84,7.19,1.988c2.307,1.148,4.327,2.784,6.059,4.904
						c1.73,2.12,3.105,4.771,4.128,7.952c1.019,3.181,1.531,6.937,1.531,11.264c0,5.214-0.732,9.721-2.197,13.52
						s-3.462,6.98-5.992,9.541c-2.53,2.563-5.505,4.463-8.921,5.699c-3.419,1.235-7.08,1.855-10.985,1.855
						c-3.285,0-6.748-0.355-10.387-1.065c-3.641-0.712-6.524-1.73-8.654-3.062l4.261-13.315c1.864,0.978,3.905,1.776,6.125,2.396
						C-538.653,873.69-536.123,874.001-533.281,874.001z"/>
					<path d="M-463.642,793.043c1.598-0.267,3.395-0.466,5.393-0.6c1.997-0.133,4.038-0.266,6.125-0.399
						c2.085-0.133,4.104-0.22,6.059-0.266c1.951-0.044,3.683-0.066,5.193-0.066c7.367,0,13.515,1.131,18.441,3.395
						s8.876,5.46,11.851,9.587c2.974,4.128,5.081,9.078,6.325,14.847c1.242,5.771,1.864,12.207,1.864,19.308
						c0,6.481-0.6,12.673-1.798,18.575c-1.198,5.904-3.308,11.098-6.324,15.579c-3.02,4.483-7.104,8.056-12.251,10.719
						c-5.149,2.663-11.63,3.995-19.44,3.995c-1.154,0-2.709-0.046-4.66-0.133c-1.954-0.09-3.995-0.2-6.125-0.333
						c-2.131-0.134-4.174-0.267-6.126-0.399c-1.953-0.134-3.462-0.29-4.526-0.467V793.043z M-439.142,807.157
						c-1.421,0-2.862,0.022-4.327,0.066c-1.465,0.046-2.597,0.156-3.396,0.333v64.181c0.266,0.089,0.732,0.156,1.398,0.199
						c0.665,0.046,1.375,0.09,2.13,0.134c0.753,0.046,1.465,0.089,2.131,0.133c0.666,0.046,1.132,0.066,1.397,0.066
						c3.995,0,7.278-0.932,9.854-2.796c2.574-1.864,4.594-4.349,6.059-7.457c1.465-3.106,2.484-6.679,3.062-10.719
						c0.577-4.038,0.866-8.276,0.866-12.716c0-4.082-0.246-8.033-0.732-11.852c-0.489-3.815-1.421-7.167-2.797-10.053
						c-1.377-2.884-3.328-5.193-5.858-6.924C-431.885,808.022-435.146,807.157-439.142,807.157z"/>
					<path d="M-253.792,838.183l1.864-17.843h-0.666l-4.927,15.979l-15.18,32.756h-5.593l-16.111-32.89l-4.927-16.111h-0.799
						l2.529,17.976v48.202h-15.845v-93.208h16.111l19.44,40.346l3.196,11.584h0.532l3.062-11.851l18.242-40.079h15.846v93.208
						h-16.777V838.183z"/>
				</g>
			</g>
		</g>
		<g>
			<g>
				<g>
					<path d="M78.546,793.975c3.639-0.799,7.544-1.375,11.717-1.73c4.172-0.354,7.767-0.532,10.786-0.532
						c3.815,0,7.544,0.378,11.185,1.131c3.639,0.756,6.857,2.131,9.654,4.128c2.796,1.998,5.06,4.706,6.79,8.122
						c1.731,3.419,2.597,7.746,2.597,12.983c0,7.546-1.397,13.693-4.194,18.441c-2.796,4.75-6.637,8.013-11.518,9.787l5.326,4.261
						l17.177,35.686h-19.308L102.514,849.5l-7.19-1.73v38.481H78.546V793.975z M95.323,836.318h5.726
						c4.171,0,7.323-1.266,9.454-3.795c2.13-2.53,3.195-6.458,3.195-11.784c0-3.995-0.889-7.257-2.663-9.787
						c-1.776-2.53-4.573-3.795-8.389-3.795c-1.421,0-2.796,0.046-4.128,0.133c-1.331,0.09-2.396,0.267-3.195,0.533V836.318z"/>
					<path fill="#FFFFFF" d="M192.791,874.001c4.349,0,7.656-1.465,9.92-4.395c2.264-2.929,3.396-6.657,3.396-11.185
						c0-10.03-4.973-15.047-14.913-15.047h-7.856v-9.055l13.183-22.369l6.391-5.992l-8.788,1.198H175.88v-14.114h42.609v9.454
						l-15.445,25.401l-4.927,3.626v0.666l4.927-0.799c2.484,0.177,4.881,0.84,7.19,1.988c2.307,1.148,4.327,2.784,6.059,4.904
						c1.73,2.12,3.105,4.771,4.128,7.952c1.019,3.181,1.531,6.937,1.531,11.264c0,5.214-0.732,9.721-2.197,13.52
						s-3.462,6.98-5.992,9.541c-2.53,2.563-5.505,4.463-8.921,5.699c-3.419,1.235-7.08,1.855-10.985,1.855
						c-3.285,0-6.748-0.355-10.387-1.065c-3.641-0.712-6.524-1.73-8.654-3.062l4.261-13.315c1.864,0.978,3.905,1.776,6.125,2.396
						C187.419,873.69,189.949,874.001,192.791,874.001z"/>
					<path d="M262.431,793.043c1.598-0.267,3.395-0.466,5.393-0.6c1.997-0.133,4.038-0.266,6.125-0.399
						c2.085-0.133,4.104-0.22,6.059-0.266c1.951-0.044,3.683-0.066,5.193-0.066c7.367,0,13.515,1.131,18.441,3.395
						s8.876,5.46,11.851,9.587c2.974,4.128,5.081,9.078,6.325,14.847c1.242,5.771,1.864,12.207,1.864,19.308
						c0,6.481-0.6,12.673-1.798,18.575c-1.198,5.904-3.308,11.098-6.324,15.579c-3.02,4.483-7.104,8.056-12.251,10.719
						c-5.149,2.663-11.63,3.995-19.44,3.995c-1.154,0-2.709-0.046-4.66-0.133c-1.954-0.09-3.995-0.2-6.125-0.333
						c-2.131-0.134-4.174-0.267-6.126-0.399c-1.953-0.134-3.462-0.29-4.526-0.467V793.043z M286.931,807.157
						c-1.421,0-2.862,0.022-4.327,0.066c-1.465,0.046-2.597,0.156-3.396,0.333v64.181c0.266,0.089,0.732,0.156,1.398,0.199
						c0.665,0.046,1.375,0.09,2.13,0.134c0.753,0.046,1.465,0.089,2.131,0.133c0.666,0.046,1.132,0.066,1.397,0.066
						c3.995,0,7.278-0.932,9.854-2.796c2.574-1.864,4.594-4.349,6.059-7.457c1.465-3.106,2.484-6.679,3.062-10.719
						c0.577-4.038,0.866-8.276,0.866-12.716c0-4.082-0.246-8.033-0.732-11.852c-0.489-3.815-1.421-7.167-2.797-10.053
						c-1.377-2.884-3.328-5.193-5.858-6.924C294.188,808.022,290.926,807.157,286.931,807.157z"/>
					<path d="M472.28,838.183l1.864-17.843h-0.666l-4.927,15.979l-15.18,32.756h-5.593l-16.111-32.89l-4.927-16.111h-0.799
						l2.529,17.976v48.202h-15.845v-93.208h16.111l19.44,40.346l3.196,11.584h0.532l3.062-11.851l18.242-40.079h15.846v93.208
						H472.28V838.183z"/>
				</g>
			</g>
		</g>
		<g>
			<g>
				<rect x="-723.072" y="966.097" fill="#FFFFFF" width="156.828" height="539.013"/>
				<rect x="-318.297" y="966.097" fill="#FFFFFF" width="156.828" height="539.013"/>
				<rect x="-520.688" y="966.097" fill="#FFFFFF" width="156.827" height="539.013"/>
			</g>
		</g>
		<g>
			<g>
				<rect x="3" y="960.096" fill="#FFFFFF" width="156.828" height="539.013"/>
				<rect x="407.775" y="960.096" fill="#FFFFFF" width="156.828" height="539.013"/>
				<rect x="205.385" y="960.096" fill="#FFFFFF" width="156.827" height="539.013"/>
			</g>
		</g>
		<g>
			<g>
				<g>
					<path d="M75.546,611.957c3.639-0.799,7.544-1.375,11.717-1.73c4.172-0.354,7.767-0.532,10.786-0.532
						c3.815,0,7.544,0.378,11.185,1.131c3.639,0.756,6.857,2.131,9.654,4.128c2.796,1.998,5.06,4.706,6.79,8.122
						c1.731,3.419,2.597,7.746,2.597,12.983c0,7.546-1.397,13.693-4.194,18.441c-2.796,4.75-6.637,8.013-11.518,9.787l5.326,4.261
						l17.177,35.686h-19.308l-16.244-36.751l-7.19-1.73v38.481H75.546V611.957z M92.323,654.301h5.726
						c4.171,0,7.323-1.266,9.454-3.795c2.13-2.53,3.195-6.458,3.195-11.784c0-3.995-0.889-7.257-2.663-9.787
						c-1.776-2.53-4.573-3.795-8.389-3.795c-1.421,0-2.796,0.046-4.128,0.133c-1.331,0.09-2.396,0.267-3.195,0.533V654.301z"/>
					<path fill="#FFFFFF" d="M189.791,691.983c4.349,0,7.656-1.465,9.92-4.395c2.264-2.929,3.396-6.657,3.396-11.185
						c0-10.03-4.973-15.047-14.913-15.047h-7.856v-9.055l13.183-22.369l6.391-5.992l-8.788,1.198H172.88v-14.114h42.609v9.454
						l-15.445,25.401l-4.927,3.626v0.666l4.927-0.799c2.484,0.177,4.881,0.84,7.19,1.988c2.307,1.148,4.327,2.784,6.059,4.904
						c1.73,2.12,3.105,4.771,4.128,7.952c1.019,3.181,1.531,6.937,1.531,11.264c0,5.214-0.732,9.721-2.197,13.52
						s-3.462,6.98-5.992,9.541c-2.53,2.563-5.505,4.463-8.921,5.699c-3.419,1.235-7.08,1.855-10.985,1.855
						c-3.285,0-6.748-0.355-10.387-1.065c-3.641-0.712-6.524-1.73-8.654-3.062l4.261-13.315c1.864,0.978,3.905,1.776,6.125,2.396
						C184.419,691.673,186.949,691.983,189.791,691.983z"/>
					<path d="M259.431,611.025c1.598-0.267,3.395-0.466,5.393-0.6c1.997-0.133,4.038-0.266,6.125-0.399
						c2.085-0.133,4.104-0.22,6.059-0.266c1.951-0.044,3.683-0.066,5.193-0.066c7.367,0,13.515,1.131,18.441,3.395
						s8.876,5.46,11.851,9.587c2.974,4.128,5.081,9.078,6.325,14.847c1.242,5.771,1.864,12.207,1.864,19.308
						c0,6.481-0.6,12.673-1.798,18.575c-1.198,5.904-3.308,11.098-6.324,15.579c-3.02,4.483-7.104,8.056-12.251,10.719
						c-5.149,2.663-11.63,3.995-19.44,3.995c-1.154,0-2.709-0.046-4.66-0.133c-1.954-0.09-3.995-0.2-6.125-0.333
						c-2.131-0.134-4.174-0.267-6.126-0.399c-1.953-0.134-3.462-0.29-4.526-0.467V611.025z M283.931,625.14
						c-1.421,0-2.862,0.022-4.327,0.066c-1.465,0.046-2.597,0.156-3.396,0.333v64.181c0.266,0.089,0.732,0.156,1.398,0.199
						c0.665,0.046,1.375,0.09,2.13,0.134c0.753,0.046,1.465,0.089,2.131,0.133c0.666,0.046,1.132,0.066,1.397,0.066
						c3.995,0,7.278-0.932,9.854-2.796c2.574-1.864,4.594-4.349,6.059-7.457c1.465-3.106,2.484-6.679,3.062-10.719
						c0.577-4.038,0.866-8.276,0.866-12.716c0-4.082-0.246-8.033-0.732-11.852c-0.489-3.815-1.421-7.167-2.797-10.053
						c-1.377-2.884-3.328-5.193-5.858-6.924C291.188,626.005,287.926,625.14,283.931,625.14z"/>
					<path d="M469.28,656.165l1.864-17.843h-0.666l-4.927,15.979l-15.18,32.756h-5.593l-16.111-32.89l-4.927-16.111h-0.799
						l2.529,17.976v48.202h-15.845v-93.208h16.111l19.44,40.346l3.196,11.584h0.532l3.062-11.851l18.242-40.079h15.846v93.208
						H469.28V656.165z"/>
				</g>
			</g>
			<g>
				<rect fill="#FFFFFF" width="156.828" height="539.013"/>
				<rect x="404.775" fill="#FFFFFF" width="156.828" height="539.013"/>
				<rect x="202.385" fill="#FFFFFF" width="156.827" height="539.013"/>
			</g>
		</g>
	</g>
</g>
<g id="red_x2F_black">
	<g id="text" display="none">
		<g display="inline">
			<g>
				<rect x="-722.289" y="611.025" fill="none" width="560.035" height="94.943"/>
				<text transform="matrix(1 0 0 1 -654.3174 704.2334)"><tspan x="0" y="0" font-family="'PTSans-NarrowBold'" font-size="133.1546" letter-spacing="26">r</tspan><tspan x="93.606" y="0" fill="#BE1E2D" font-family="'PTSans-NarrowBold'" font-size="133.1546" letter-spacing="26">3</tspan><tspan x="183.885" y="0" font-family="'PTSans-NarrowBold'" font-size="133.1546" letter-spacing="26">d m</tspan></text>
			</g>
			<g>
				<rect x="-723.072" fill="#BE1E2D" width="156.828" height="539.013"/>
				<rect x="-318.297" fill="#BE1E2D" width="156.828" height="539.013"/>
				<rect x="-520.688" fill="#BE1E2D" width="156.827" height="539.013"/>
			</g>
		</g>
		<g display="inline">
			<g>
				<rect x="-722.289" y="793.043" fill="none" width="560.035" height="94.943"/>
				<text transform="matrix(1 0 0 1 -654.3174 886.251)"><tspan x="0" y="0" font-family="'PTSans-NarrowBold'" font-size="133.1546" letter-spacing="26">r</tspan><tspan x="93.606" y="0" fill="#BE1E2D" font-family="'PTSans-NarrowBold'" font-size="133.1546" letter-spacing="26">3</tspan><tspan x="183.885" y="0" font-family="'PTSans-NarrowBold'" font-size="133.1546" letter-spacing="26">d m</tspan></text>
			</g>
		</g>
		<g display="inline">
			<g>
				<rect x="3.783" y="793.043" fill="none" width="560.035" height="94.943"/>
				<text transform="matrix(1 0 0 1 71.7559 886.251)"><tspan x="0" y="0" font-family="'PTSans-NarrowBold'" font-size="133.1546" letter-spacing="26">r</tspan><tspan x="93.605" y="0" fill="#C1272D" font-family="'PTSans-NarrowBold'" font-size="133.1546" letter-spacing="26">3</tspan><tspan x="183.885" y="0" font-family="'PTSans-NarrowBold'" font-size="133.1546" letter-spacing="26">d m</tspan></text>
			</g>
		</g>
		<g display="inline">
			<g>
				<rect x="-723.072" y="966.097" fill="#BE1E2D" width="156.828" height="539.013"/>
				<rect x="-318.297" y="966.097" fill="#BE1E2D" width="156.828" height="539.013"/>
				<rect x="-520.688" y="966.097" fill="#BE1E2D" width="156.827" height="539.013"/>
			</g>
		</g>
		<g display="inline">
			<g>
				<rect x="3" y="960.096" fill="#C1272D" width="156.828" height="539.013"/>
				<rect x="407.775" y="960.096" fill="#C1272D" width="156.828" height="539.013"/>
				<rect x="205.385" y="960.096" fill="#C1272D" width="156.827" height="539.013"/>
			</g>
		</g>
		<g display="inline">
			<g>
				<rect x="0.783" y="611.025" fill="none" width="560.035" height="94.943"/>
				<text transform="matrix(1 0 0 1 68.7559 704.2334)"><tspan x="0" y="0" font-family="'PTSans-NarrowBold'" font-size="133.1546" letter-spacing="26">r</tspan><tspan x="93.605" y="0" fill="#C1272D" font-family="'PTSans-NarrowBold'" font-size="133.1546" letter-spacing="26">3</tspan><tspan x="183.885" y="0" font-family="'PTSans-NarrowBold'" font-size="133.1546" letter-spacing="26">d m</tspan></text>
			</g>
			<g>
				<rect fill="#C1272D" width="156.828" height="539.013"/>
				<rect x="404.775" fill="#C1272D" width="156.828" height="539.013"/>
				<rect x="202.385" fill="#C1272D" width="156.827" height="539.013"/>
			</g>
		</g>
	</g>
	<g id="outlines">
		<g>
			<g>
				<g>
					<path d="M75.546,611.957c3.639-0.799,7.544-1.375,11.717-1.73c4.172-0.354,7.767-0.532,10.786-0.532
						c3.815,0,7.544,0.378,11.185,1.131c3.639,0.756,6.857,2.131,9.654,4.128c2.796,1.998,5.06,4.706,6.79,8.122
						c1.731,3.419,2.597,7.746,2.597,12.983c0,7.546-1.397,13.693-4.194,18.441c-2.796,4.75-6.637,8.013-11.518,9.787l5.326,4.261
						l17.177,35.686h-19.308l-16.244-36.751l-7.19-1.73v38.481H75.546V611.957z M92.323,654.301h5.726
						c4.171,0,7.323-1.266,9.454-3.795c2.13-2.53,3.195-6.458,3.195-11.784c0-3.995-0.889-7.257-2.663-9.787
						c-1.776-2.53-4.573-3.795-8.389-3.795c-1.421,0-2.796,0.046-4.128,0.133c-1.331,0.09-2.396,0.267-3.195,0.533V654.301z"/>
					<path fill="#C1272D" d="M189.791,691.983c4.349,0,7.656-1.465,9.92-4.395c2.264-2.929,3.396-6.657,3.396-11.185
						c0-10.03-4.973-15.047-14.913-15.047h-7.856v-9.055l13.183-22.369l6.391-5.992l-8.788,1.198H172.88v-14.114h42.609v9.454
						l-15.445,25.401l-4.927,3.626v0.666l4.927-0.799c2.484,0.177,4.881,0.84,7.19,1.988c2.307,1.148,4.327,2.784,6.059,4.904
						c1.73,2.12,3.105,4.771,4.128,7.952c1.019,3.181,1.531,6.937,1.531,11.264c0,5.214-0.732,9.721-2.197,13.52
						s-3.462,6.98-5.992,9.541c-2.53,2.563-5.505,4.463-8.921,5.699c-3.419,1.235-7.08,1.855-10.985,1.855
						c-3.285,0-6.748-0.355-10.387-1.065c-3.641-0.712-6.524-1.73-8.654-3.062l4.261-13.315c1.864,0.978,3.905,1.776,6.125,2.396
						C184.419,691.673,186.949,691.983,189.791,691.983z"/>
					<path d="M259.431,611.025c1.598-0.267,3.395-0.466,5.393-0.6c1.997-0.133,4.038-0.266,6.125-0.399
						c2.085-0.133,4.104-0.22,6.059-0.266c1.951-0.044,3.683-0.066,5.193-0.066c7.367,0,13.515,1.131,18.441,3.395
						s8.876,5.46,11.851,9.587c2.974,4.128,5.081,9.078,6.325,14.847c1.242,5.771,1.864,12.207,1.864,19.308
						c0,6.481-0.6,12.673-1.798,18.575c-1.198,5.904-3.308,11.098-6.324,15.579c-3.02,4.483-7.104,8.056-12.251,10.719
						c-5.149,2.663-11.63,3.995-19.44,3.995c-1.154,0-2.709-0.046-4.66-0.133c-1.954-0.09-3.995-0.2-6.125-0.333
						c-2.131-0.134-4.174-0.267-6.126-0.399c-1.953-0.134-3.462-0.29-4.526-0.467V611.025z M283.931,625.14
						c-1.421,0-2.862,0.022-4.327,0.066c-1.465,0.046-2.597,0.156-3.396,0.333v64.181c0.266,0.089,0.732,0.156,1.398,0.199
						c0.665,0.046,1.375,0.09,2.13,0.134c0.753,0.046,1.465,0.089,2.131,0.133c0.666,0.046,1.132,0.066,1.397,0.066
						c3.995,0,7.278-0.932,9.854-2.796c2.574-1.864,4.594-4.349,6.059-7.457c1.465-3.106,2.484-6.679,3.062-10.719
						c0.577-4.038,0.866-8.276,0.866-12.716c0-4.082-0.246-8.033-0.732-11.852c-0.489-3.815-1.421-7.167-2.797-10.053
						c-1.377-2.884-3.328-5.193-5.858-6.924C291.188,626.005,287.926,625.14,283.931,625.14z"/>
					<path d="M469.28,656.165l1.864-17.843h-0.666l-4.927,15.979l-15.18,32.756h-5.593l-16.111-32.89l-4.927-16.111h-0.799
						l2.529,17.976v48.202h-15.845v-93.208h16.111l19.44,40.346l3.196,11.584h0.532l3.062-11.851l18.242-40.079h15.846v93.208
						H469.28V656.165z"/>
				</g>
			</g>
			<g>
				<rect fill="#C1272D" width="156.828" height="539.013"/>
				<rect x="404.775" fill="#C1272D" width="156.828" height="539.013"/>
				<rect x="202.385" fill="#C1272D" width="156.827" height="539.013"/>
			</g>
		</g>
	</g>
</g>
</svg>
