<?xml version="1.0" encoding="utf-8"?>
<!-- Generator: Adobe Illustrator 16.0.0, SVG Export Plug-In . SVG Version: 6.00 Build 0)  -->
<!DOCTYPE svg PUBLIC "-//W3C//DTD SVG 1.1//EN" "http://www.w3.org/Graphics/SVG/1.1/DTD/svg11.dtd">
<svg version="1.1" id="red_x2F_black" xmlns="http://www.w3.org/2000/svg" xmlns:xlink="http://www.w3.org/1999/xlink" x="0px"
	 y="0px" width="560.035px" height="128.681px" viewBox="0 0 560.035 128.681" enable-background="new 0 0 560.035 128.681"
	 xml:space="preserve">
<g id="outlines">
	<g>
		<g>
			<g>
				<path d="M74.763,20.903c3.639-0.799,7.544-1.375,11.717-1.73c4.172-0.354,7.767-0.532,10.786-0.532
					c3.815,0,7.544,0.378,11.185,1.131c3.639,0.756,6.857,2.131,9.654,4.128c2.796,1.998,5.06,4.706,6.79,8.122
					c1.731,3.419,2.597,7.746,2.597,12.983c0,7.546-1.397,13.693-4.194,18.441c-2.796,4.75-6.637,8.013-11.518,9.787l5.326,4.261
					l17.177,35.686h-19.308L98.73,76.429l-7.19-1.73v38.481H74.763V20.903z M91.54,63.247h5.726c4.171,0,7.323-1.266,9.454-3.795
					c2.13-2.53,3.195-6.458,3.195-11.784c0-3.995-0.889-7.257-2.663-9.787c-1.776-2.53-4.573-3.795-8.389-3.795
					c-1.421,0-2.796,0.046-4.128,0.133c-1.331,0.09-2.396,0.267-3.195,0.533V63.247z"/>
				<path fill="#BE1E2D" d="M189.008,100.93c4.349,0,7.656-1.465,9.92-4.395c2.264-2.929,3.396-6.657,3.396-11.185
					c0-10.03-4.973-15.047-14.913-15.047h-7.856v-9.055l13.183-22.369l6.391-5.992l-8.788,1.198h-18.242V19.972h42.609v9.454
					l-15.445,25.401l-4.927,3.626v0.666l4.927-0.799c2.484,0.177,4.881,0.84,7.19,1.988c2.307,1.148,4.327,2.784,6.059,4.904
					c1.73,2.12,3.105,4.771,4.128,7.952c1.019,3.181,1.531,6.937,1.531,11.264c0,5.214-0.732,9.721-2.197,13.52
					s-3.462,6.98-5.992,9.541c-2.53,2.563-5.505,4.463-8.921,5.699c-3.419,1.235-7.08,1.855-10.985,1.855
					c-3.285,0-6.748-0.355-10.387-1.065c-3.641-0.712-6.524-1.73-8.654-3.062l4.261-13.315c1.864,0.978,3.905,1.776,6.125,2.396
					C183.636,100.619,186.166,100.93,189.008,100.93z"/>
				<path d="M258.647,19.972c1.598-0.267,3.395-0.466,5.393-0.6c1.997-0.133,4.038-0.266,6.125-0.399
					c2.085-0.133,4.104-0.22,6.059-0.266c1.951-0.044,3.683-0.066,5.193-0.066c7.367,0,13.515,1.131,18.441,3.395
					s8.876,5.46,11.851,9.587c2.974,4.128,5.081,9.078,6.325,14.847c1.242,5.771,1.864,12.207,1.864,19.308
					c0,6.481-0.6,12.673-1.798,18.575c-1.198,5.904-3.308,11.098-6.324,15.579c-3.02,4.483-7.104,8.056-12.251,10.719
					c-5.149,2.663-11.63,3.995-19.44,3.995c-1.154,0-2.709-0.046-4.66-0.133c-1.954-0.09-3.995-0.2-6.125-0.333
					c-2.131-0.134-4.174-0.267-6.126-0.399c-1.953-0.134-3.462-0.29-4.526-0.467V19.972z M283.147,34.086
					c-1.421,0-2.862,0.022-4.327,0.066c-1.465,0.046-2.597,0.156-3.396,0.333v64.181c0.266,0.089,0.732,0.156,1.398,0.199
					c0.665,0.046,1.375,0.09,2.13,0.134c0.753,0.046,1.465,0.089,2.131,0.133c0.666,0.046,1.132,0.066,1.397,0.066
					c3.995,0,7.278-0.932,9.854-2.796c2.574-1.864,4.594-4.349,6.059-7.457c1.465-3.106,2.484-6.679,3.062-10.719
					c0.577-4.038,0.866-8.276,0.866-12.716c0-4.082-0.246-8.033-0.732-11.852c-0.489-3.815-1.421-7.167-2.797-10.053
					c-1.377-2.884-3.328-5.193-5.858-6.924C290.404,34.951,287.143,34.086,283.147,34.086z"/>
				<path d="M468.497,65.111l1.864-17.843h-0.666l-4.927,15.979l-15.18,32.756h-5.593l-16.111-32.89l-4.927-16.111h-0.799
					l2.529,17.976v48.202h-15.845V19.972h16.111l19.44,40.346l3.196,11.584h0.532l3.062-11.851l18.242-40.079h15.846v93.208h-16.777
					V65.111z"/>
			</g>
		</g>
	</g>
</g>
</svg>
