<?xml version="1.0" encoding="utf-8"?>
<!-- Generator: Adobe Illustrator 16.0.0, SVG Export Plug-In . SVG Version: 6.00 Build 0)  -->
<!DOCTYPE svg PUBLIC "-//W3C//DTD SVG 1.1//EN" "http://www.w3.org/Graphics/SVG/1.1/DTD/svg11.dtd">
<svg version="1.1" id="Layer_1" xmlns="http://www.w3.org/2000/svg" xmlns:xlink="http://www.w3.org/1999/xlink" x="0px" y="0px"
	 width="144px" height="144px" viewBox="0 0 144 144" enable-background="new 0 0 144 144" xml:space="preserve">
<g id="design">
</g>
<g id="development">
	<g>
		<g>
			<path d="M46.61,72.272c0,14.176,11.531,25.71,25.711,25.71c14.176,0,25.707-11.534,25.707-25.71
				c0-14.176-11.53-25.71-25.707-25.71C58.142,46.562,46.61,58.097,46.61,72.272z M89.962,72.272c0,9.73-7.914,17.645-17.641,17.645
				c-9.73,0-17.645-7.914-17.645-17.645c0-9.727,7.914-17.641,17.645-17.641C82.048,54.632,89.962,62.546,89.962,72.272z"/>
		</g>
		<g>
			<path d="M131.855,71.808l-7.711-3.852c-0.352-4.113-1.199-8.141-2.522-12.043l5.637-7.273c2.023-2.609,2.25-6.191,0.574-9.039
				c-2.629-4.461-5.797-8.602-9.418-12.312c-1.556-1.59-3.647-2.43-5.776-2.43c-1.138,0-2.285,0.238-3.363,0.734l-8.129,3.734
				c-3.767-2.492-7.859-4.496-12.142-5.941l-2.219-8.992c-0.806-3.266-3.552-5.688-6.892-6.082
				c-2.569-0.301-5.117-0.453-7.574-0.453c-2.457,0-5.008,0.152-7.578,0.453c-3.34,0.395-6.086,2.816-6.891,6.082l-2.219,8.992
				c-4.281,1.445-8.379,3.449-12.141,5.941l-8.129-3.734c-1.078-0.496-2.227-0.734-3.363-0.734c-2.129,0-4.223,0.84-5.777,2.43
				c-3.617,3.707-6.785,7.848-9.418,12.312c-1.676,2.844-1.449,6.426,0.574,9.039l5.637,7.273c-1.324,3.902-2.168,7.93-2.523,12.043
				l-7.711,3.852c-3.047,1.523-4.809,4.793-4.406,8.176c0.641,5.367,1.961,10.637,3.918,15.668c1.191,3.055,4.109,5.086,7.387,5.141
				l9.207,0.152c2.02,3.051,4.352,5.871,6.98,8.438l-1.836,8.66c-0.695,3.277,0.711,6.648,3.535,8.461
				c4.676,3.004,9.719,5.387,14.984,7.082c0.812,0.262,1.648,0.391,2.473,0.391c2.359,0,4.652-1.039,6.215-2.922l5.871-7.082
				c1.73,0.172,3.473,0.262,5.211,0.262c1.734,0,3.477-0.09,5.207-0.262l5.875,7.082c1.56,1.883,3.853,2.922,6.211,2.922
				c0.824,0,1.656-0.129,2.474-0.391c5.263-1.695,10.306-4.078,14.983-7.082c2.824-1.812,4.23-5.18,3.535-8.461l-1.836-8.66
				c2.629-2.566,4.961-5.387,6.98-8.438l9.207-0.152c3.277-0.055,6.195-2.086,7.383-5.137c1.961-5.027,3.281-10.301,3.922-15.672
				C136.665,76.602,134.902,73.331,131.855,71.808z M100.204,38.64l12.438-5.715c3.159,3.238,5.93,6.852,8.241,10.773l-4.887,6.301
				c-0.509-1-1.043-1.992-1.625-2.961c-0.763-1.273-2.418-1.688-3.688-0.922c-1.272,0.766-1.688,2.418-0.922,3.691
				c3.223,5.371,5.219,11.281,5.93,17.57c2.699,23.914-14.562,45.57-38.477,48.27c-11.586,1.306-22.988-1.977-32.105-9.241
				c-9.117-7.271-14.855-17.652-16.164-29.238c-1.309-11.586,1.977-22.988,9.242-32.102c2.238-2.809,4.773-5.293,7.543-7.426
				c0.074-0.055,0.145-0.113,0.215-0.168c0.312-0.234,0.629-0.457,0.945-0.684c4.578-3.238,9.805-5.629,15.453-6.934l0.02-0.074
				c1.656-0.383,3.344-0.688,5.059-0.883c5.016-0.566,9.996-0.27,14.849,0.867l0.022,0.09
				C88.979,31.397,95.075,34.448,100.204,38.64z M65.685,16.327c2.176-0.258,4.391-0.402,6.637-0.402
				c2.247,0,4.458,0.145,6.633,0.402l1.891,7.664c-4.604-0.816-9.301-0.973-14.022-0.438c-1.02,0.117-2.027,0.273-3.031,0.449
				L65.685,16.327z M31.997,32.925l7.117,3.27c-1.832,1.691-3.547,3.531-5.133,5.516c-2.078,2.609-3.863,5.383-5.348,8.281
				l-4.879-6.293C26.067,39.776,28.837,36.163,31.997,32.925z M16.388,79.025l7.016-3.504c0.051,0.746,0.113,1.496,0.199,2.25
				c0.598,5.302,2.035,10.375,4.207,15.082l-7.996-0.129C18.126,88.391,16.958,83.805,16.388,79.025z M41.927,119.714l1.637-7.733
				c5.043,3.66,10.645,6.285,16.543,7.801l-5.078,6.125C50.364,124.405,45.97,122.309,41.927,119.714z M89.613,125.905l-5.104-6.152
				c6.091-1.56,11.677-4.242,16.56-7.793l1.645,7.754C98.669,122.312,94.273,124.405,89.613,125.905z M124.825,92.727l-8.023,0.129
				c2.496-5.363,4.023-11.228,4.427-17.336l7.022,3.508C127.682,83.805,126.514,88.391,124.825,92.727z"/>
		</g>
		<g>
			<path d="M34.938,72.272c0,8.434,2.887,16.699,8.129,23.277c0.531,0.668,1.316,1.016,2.105,1.016c0.59,0,1.18-0.19,1.676-0.586
				c1.16-0.926,1.352-2.617,0.426-3.78c-4.551-5.712-6.957-12.603-6.957-19.926c0-17.648,14.355-32.004,32.004-32.004
				c3.414,0,6.773,0.535,9.988,1.586c1.414,0.469,2.93-0.309,3.392-1.719c0.465-1.41-0.306-2.93-1.716-3.391
				c-3.758-1.23-7.684-1.855-11.664-1.855C51.708,34.89,34.938,51.659,34.938,72.272z"/>
		</g>
		<g>
			<path d="M104.32,72.272c0,17.645-14.354,32.003-32,32.003c-5.113,0-9.996-1.164-14.504-3.465
				c-1.324-0.672-2.945-0.147-3.621,1.176c-0.672,1.324-0.148,2.941,1.176,3.617c5.273,2.688,10.977,4.052,16.949,4.052
				c20.609,0,37.379-16.771,37.379-37.383c0-9.086-3.293-17.84-9.277-24.656c-0.979-1.113-2.68-1.223-3.797-0.246
				c-1.117,0.98-1.228,2.68-0.246,3.797C101.501,56.999,104.32,64.495,104.32,72.272z"/>
		</g>
	</g>
</g>
</svg>
