<?xml version="1.0" encoding="utf-8"?>
<!-- Generator: Adobe Illustrator 16.0.0, SVG Export Plug-In . SVG Version: 6.00 Build 0)  -->
<!DOCTYPE svg PUBLIC "-//W3C//DTD SVG 1.1//EN" "http://www.w3.org/Graphics/SVG/1.1/DTD/svg11.dtd">
<svg version="1.1" xmlns="http://www.w3.org/2000/svg" xmlns:xlink="http://www.w3.org/1999/xlink" x="0px" y="0px" width="162px"
	 height="144px" viewBox="0 0 162 144" enable-background="new 0 0 162 144" xml:space="preserve">
<g id="design">
</g>
<g id="strategy">
	<g>
		<g>
			<g>
				<path d="M81.383,8.242c-24.357,0-44.174,19.816-44.174,44.176c0,17.426,9.967,32.875,25.619,40.09v5.082
					c0,2.199,1.781,3.984,3.984,3.984h29.143c2.201,0,3.984-1.785,3.984-3.984v-5.082c15.654-7.215,25.619-22.664,25.619-40.09
					C125.559,28.059,105.742,8.242,81.383,8.242z M94.51,86.16c-1.531,0.598-2.539,2.07-2.539,3.715v3.73H70.797v-3.73
					c0-1.645-1.008-3.117-2.539-3.715c-14.02-5.457-23.08-18.703-23.08-33.742c0-19.965,16.242-36.207,36.205-36.207
					c19.965,0,36.207,16.242,36.207,36.207C117.59,67.453,108.531,80.699,94.51,86.16z"/>
			</g>
			<g>
				<path d="M111.285,45.664c-0.322-1.43-1.74-2.324-3.176-2.008c-1.43,0.324-2.328,1.746-2.006,3.18
					c0.408,1.812,0.617,3.691,0.617,5.582c0,0.965-0.057,1.941-0.166,2.895c-0.168,1.461,0.879,2.777,2.336,2.945
					c0.104,0.012,0.207,0.016,0.307,0.016c1.33,0,2.48-1,2.635-2.352c0.133-1.16,0.201-2.336,0.201-3.504
					C112.033,50.133,111.781,47.863,111.285,45.664z"/>
			</g>
			<g>
				<path d="M105.992,34.145c-4.555-6.121-11.158-10.309-18.6-11.785c-1.432-0.285-2.838,0.648-3.123,2.086s0.648,2.836,2.088,3.125
					c6.146,1.219,11.605,4.684,15.373,9.746c0.52,0.699,1.32,1.07,2.133,1.07c0.551,0,1.105-0.172,1.582-0.527
					C106.623,36.984,106.867,35.32,105.992,34.145z"/>
			</g>
			<g>
				<path d="M91.113,106.656h-19.92c-2.201,0-3.984,1.781-3.984,3.984c0,2.199,1.783,3.984,3.984,3.984h19.92
					c2.199,0,3.984-1.785,3.984-3.984C95.098,108.438,93.312,106.656,91.113,106.656z"/>
			</g>
			<g>
				<path d="M89.02,119.098H73.748c-2.201,0-3.984,1.785-3.984,3.984s1.783,3.984,3.984,3.984H89.02
					c2.199,0,3.984-1.785,3.984-3.984S91.219,119.098,89.02,119.098z"/>
			</g>
			<g>
				<path d="M84.777,130.93h-6.789c-1.467,0-2.656,1.188-2.656,2.656s1.189,2.656,2.656,2.656h6.789
					c1.467,0,2.656-1.188,2.656-2.656S86.244,130.93,84.777,130.93z"/>
			</g>
			<g>
				<path d="M95.193,51.117c-1.371-0.535-2.908,0.133-3.447,1.496l-10.363,26.23l-8.926-22.598h11.082
					c1.467,0,2.656-1.191,2.656-2.656s-1.189-2.656-2.656-2.656H68.553c-0.068,0-0.133,0.016-0.201,0.02
					c-0.098,0.008-0.195,0.012-0.295,0.031c-0.104,0.02-0.199,0.055-0.297,0.082c-0.061,0.02-0.123,0.027-0.182,0.051
					c-0.01,0.008-0.016,0.012-0.025,0.016c-0.105,0.043-0.203,0.102-0.301,0.156c-0.057,0.031-0.115,0.055-0.168,0.09
					c-0.082,0.051-0.152,0.121-0.227,0.184c-0.057,0.047-0.121,0.09-0.174,0.141c-0.07,0.07-0.123,0.148-0.184,0.219
					c-0.047,0.062-0.102,0.113-0.143,0.172c-0.062,0.094-0.111,0.195-0.162,0.297c-0.025,0.051-0.059,0.098-0.082,0.148
					c-0.037,0.086-0.059,0.18-0.086,0.27c-0.023,0.074-0.055,0.148-0.07,0.227c-0.016,0.066-0.018,0.137-0.025,0.203
					c-0.014,0.109-0.031,0.215-0.033,0.324c0,0.008-0.002,0.02-0.002,0.027c0,0.066,0.014,0.125,0.02,0.188
					c0.006,0.105,0.01,0.207,0.029,0.309s0.053,0.199,0.084,0.297c0.02,0.062,0.029,0.121,0.053,0.184l12.678,32.09
					c0.412,1.047,1.414,1.684,2.471,1.684c0.051,0,0.102-0.012,0.154-0.016c0.051,0.004,0.102,0.016,0.152,0.016
					c1.057,0,2.059-0.637,2.471-1.684l12.68-32.09C97.227,53.203,96.559,51.66,95.193,51.117z"/>
			</g>
		</g>
		<g>
			<g>
				<path d="M155.581,52.137h-20.002c-1.436,0-2.6-1.164-2.6-2.6s1.164-2.6,2.6-2.6h20.002c1.436,0,2.6,1.164,2.6,2.6
					S157.017,52.137,155.581,52.137z"/>
			</g>
			<g>
				<path d="M132.519,32.709c-1.081,0-2.091-0.68-2.46-1.76c-0.465-1.359,0.26-2.838,1.618-3.303l18.926-6.473
					c1.359-0.459,2.837,0.26,3.302,1.619s-0.26,2.838-1.618,3.303l-18.926,6.473C133.081,32.662,132.798,32.709,132.519,32.709z"/>
			</g>
			<g>
				<path d="M151.444,78.041c-0.279,0-0.562-0.047-0.842-0.141l-18.926-6.473c-1.358-0.465-2.083-1.943-1.618-3.303
					s1.944-2.072,3.302-1.619l18.926,6.473c1.358,0.465,2.083,1.943,1.618,3.303C153.535,77.361,152.525,78.041,151.444,78.041z"/>
			</g>
		</g>
		<g>
			<g>
				<path d="M27.188,52.137H7.186c-1.436,0-2.6-1.164-2.6-2.6s1.164-2.6,2.6-2.6h20.002c1.436,0,2.6,1.164,2.6,2.6
					S28.623,52.137,27.188,52.137z"/>
			</g>
			<g>
				<path d="M30.248,32.709c-0.279,0-0.562-0.047-0.842-0.141L10.48,26.096c-1.358-0.465-2.083-1.943-1.618-3.303
					s1.94-2.074,3.302-1.619l18.926,6.473c1.358,0.465,2.083,1.943,1.618,3.303C32.339,32.029,31.329,32.709,30.248,32.709z"/>
			</g>
			<g>
				<path d="M11.322,78.041c-1.081,0-2.091-0.68-2.46-1.76c-0.465-1.359,0.26-2.838,1.618-3.303l18.926-6.473
					c1.356-0.457,2.837,0.26,3.302,1.619s-0.26,2.838-1.618,3.303L12.164,77.9C11.885,77.994,11.602,78.041,11.322,78.041z"/>
			</g>
		</g>
	</g>
</g>
<g id="development">
</g>
</svg>
